<svg width="165" height="192" viewBox="0 0 165 192" fill="none" xmlns="http://www.w3.org/2000/svg">
<path d="M132.938 35.3647L134.322 40.8027C133.947 41.0501 133.504 41.2834 132.991 41.5024C132.49 41.7021 132.016 41.8536 131.57 41.9567L130.469 41.3203L129.481 37.541C128.847 37.7927 128.154 38.0109 127.404 38.1956C126.665 38.361 126.064 38.4647 125.602 38.5068C124.458 38.2578 123.351 37.8111 122.28 37.1665C121.199 36.5413 120.268 35.8103 119.489 34.9733C118.438 33.0001 118.016 31.1197 118.222 29.3323C118.596 28.5949 118.989 27.8687 119.401 27.1536C119.833 26.4497 120.323 25.7793 120.87 25.1424C121.616 24.6974 122.417 24.3358 123.273 24.0574C124.148 23.7903 125.049 23.5896 125.976 23.4556C125.771 22.2033 125.712 21.0998 125.799 20.1452C125.917 19.1823 126.287 18.2497 126.911 17.3474C127.799 16.701 128.738 16.1878 129.73 15.8076C130.752 15.4193 131.674 15.205 132.496 15.1646C133.734 15.5192 134.801 15.9685 135.698 16.5126C136.605 17.0373 137.545 17.774 138.518 18.7226C138.748 19.2164 138.903 19.7957 138.984 20.4605C139.083 21.1365 139.144 21.7901 139.166 22.4214L136.347 25.971C135.902 25.8942 135.471 25.7482 135.054 25.5331C134.668 25.3098 134.301 25.0077 133.954 24.6268L135.575 21.0798C134.877 20.5478 134.073 20.0443 133.162 19.5694C132.251 19.0945 131.303 18.7523 130.316 18.5428C129.907 19.208 129.674 19.9239 129.618 20.6905C129.593 21.4489 129.692 22.3048 129.915 23.2582C130.137 24.2116 130.401 25.3174 130.706 26.5757L132.008 31.6188L134.717 27.6576C135.093 27.7203 135.484 27.8688 135.89 28.1033C136.314 28.3489 136.696 28.6469 137.035 28.9973C137.385 29.3284 137.605 29.6617 137.695 29.997L132.938 35.3647ZM121.457 31.6273C122.038 32.2723 122.752 32.8653 123.599 33.4064C124.476 33.9393 125.371 34.3532 126.282 34.6482C127.224 34.935 128.071 35.0511 128.824 34.9965L127.085 28.2321L126.587 26.2822C125.751 26.3918 125.001 26.7315 124.338 27.3014C123.686 27.8521 123.121 28.518 122.645 29.2992C122.169 30.0804 121.773 30.8564 121.457 31.6273Z" fill="black"/>
<path d="M31.3084 35.3647L29.9248 40.8027C30.2992 41.0501 30.7427 41.2834 31.2554 41.5024C31.7568 41.7021 32.2305 41.8536 32.6762 41.9567L33.7772 41.3203L34.7653 37.541C35.3998 37.7927 36.0922 38.0109 36.8426 38.1956C37.5818 38.361 38.1824 38.4647 38.6445 38.5068C39.7886 38.2578 40.8959 37.8111 41.9664 37.1665C43.048 36.5413 43.9785 35.8103 44.7577 34.9733C45.8088 33.0001 46.231 31.1197 46.0244 29.3323C45.6506 28.5949 45.2576 27.8687 44.8452 27.1536C44.4135 26.4497 43.9239 25.7793 43.3763 25.1424C42.6304 24.6974 41.8295 24.3358 40.9737 24.0574C40.0985 23.7903 39.1973 23.5896 38.2702 23.4556C38.4751 22.2033 38.5341 21.0998 38.4471 20.1452C38.3297 19.1823 37.9593 18.2497 37.3359 17.3474C36.4481 16.701 35.5083 16.1878 34.5164 15.8076C33.4942 15.4193 32.5722 15.205 31.7505 15.1646C30.5129 15.5192 29.4457 15.9685 28.549 16.5126C27.6412 17.0373 26.7011 17.774 25.7287 18.7226C25.4985 19.2164 25.3432 19.7957 25.263 20.4605C25.1635 21.1365 25.1027 21.7901 25.0804 22.4214L27.9 25.971C28.345 25.8942 28.7759 25.7482 29.1927 25.5331C29.579 25.3098 29.9456 25.0077 30.2925 24.6268L28.6719 21.0798C29.3695 20.5478 30.1737 20.0443 31.0844 19.5694C31.9952 19.0945 32.9439 18.7523 33.9305 18.5428C34.3399 19.208 34.5724 19.9239 34.6282 20.6905C34.6535 21.4489 34.5548 22.3048 34.332 23.2582C34.1092 24.2116 33.8455 25.3174 33.541 26.5757L32.2387 31.6188L29.5293 27.6576C29.1534 27.7203 28.7627 27.8688 28.3571 28.1033C27.9321 28.3489 27.5503 28.6469 27.2116 28.9973C26.8617 29.3284 26.6418 29.6617 26.5519 29.997L31.3084 35.3647ZM42.7895 31.6273C42.2086 32.2723 41.4947 32.8653 40.6478 33.4064C39.7705 33.9393 38.876 34.3532 37.9645 34.6482C37.0225 34.935 36.1752 35.0511 35.4226 34.9965L37.1617 28.2321L37.6597 26.2822C38.4955 26.3918 39.2451 26.7315 39.9086 27.3014C40.5609 27.8521 41.1252 28.518 41.6014 29.2992C42.0777 30.0804 42.4737 30.8564 42.7895 31.6273Z" fill="black"/>
<path d="M132.938 156.635L134.322 151.197C133.947 150.95 133.504 150.717 132.991 150.498C132.49 150.298 132.016 150.146 131.57 150.043L130.469 150.68L129.481 154.459C128.847 154.207 128.154 153.989 127.404 153.804C126.665 153.639 126.064 153.535 125.602 153.493C124.458 153.742 123.351 154.189 122.28 154.833C121.199 155.459 120.268 156.19 119.489 157.027C118.438 159 118.016 160.88 118.222 162.668C118.596 163.405 118.989 164.131 119.401 164.846C119.833 165.55 120.323 166.221 120.87 166.858C121.616 167.303 122.417 167.664 123.273 167.943C124.148 168.21 125.049 168.41 125.976 168.544C125.771 169.797 125.712 170.9 125.799 171.855C125.917 172.818 126.287 173.75 126.911 174.653C127.799 175.299 128.738 175.812 129.73 176.192C130.752 176.581 131.674 176.795 132.496 176.835C133.734 176.481 134.801 176.031 135.698 175.487C136.605 174.963 137.545 174.226 138.518 173.277C138.748 172.784 138.903 172.204 138.984 171.539C139.083 170.864 139.144 170.21 139.166 169.579L136.347 166.029C135.902 166.106 135.471 166.252 135.054 166.467C134.668 166.69 134.301 166.992 133.954 167.373L135.575 170.92C134.877 171.452 134.073 171.956 133.162 172.431C132.251 172.906 131.303 173.248 130.316 173.457C129.907 172.792 129.674 172.076 129.618 171.309C129.593 170.551 129.692 169.695 129.915 168.742C130.137 167.788 130.401 166.683 130.706 165.424L132.008 160.381L134.717 164.342C135.093 164.28 135.484 164.131 135.89 163.897C136.314 163.651 136.696 163.353 137.035 163.003C137.385 162.672 137.605 162.338 137.695 162.003L132.938 156.635ZM121.457 160.373C122.038 159.728 122.752 159.135 123.599 158.594C124.476 158.061 125.371 157.647 126.282 157.352C127.224 157.065 128.071 156.949 128.824 157.004L127.085 163.768L126.587 165.718C125.751 165.608 125.001 165.268 124.338 164.699C123.686 164.148 123.121 163.482 122.645 162.701C122.169 161.92 121.773 161.144 121.457 160.373Z" fill="black"/>
<path d="M31.3084 156.635L29.9248 151.197C30.2992 150.95 30.7427 150.717 31.2554 150.498C31.7568 150.298 32.2305 150.146 32.6762 150.043L33.7772 150.68L34.7653 154.459C35.3998 154.207 36.0922 153.989 36.8426 153.804C37.5818 153.639 38.1824 153.535 38.6445 153.493C39.7886 153.742 40.8959 154.189 41.9664 154.833C43.048 155.459 43.9785 156.19 44.7577 157.027C45.8088 159 46.231 160.88 46.0244 162.668C45.6506 163.405 45.2576 164.131 44.8452 164.846C44.4135 165.55 43.9239 166.221 43.3763 166.858C42.6304 167.303 41.8295 167.664 40.9737 167.943C40.0985 168.21 39.1973 168.41 38.2702 168.544C38.4751 169.797 38.5341 170.9 38.4471 171.855C38.3297 172.818 37.9593 173.75 37.3359 174.653C36.4481 175.299 35.5083 175.812 34.5164 176.192C33.4942 176.581 32.5722 176.795 31.7505 176.835C30.5129 176.481 29.4457 176.031 28.549 175.487C27.6412 174.963 26.7011 174.226 25.7287 173.277C25.4985 172.784 25.3432 172.204 25.263 171.539C25.1635 170.864 25.1027 170.21 25.0804 169.579L27.9 166.029C28.345 166.106 28.7759 166.252 29.1927 166.467C29.579 166.69 29.9456 166.992 30.2925 167.373L28.6719 170.92C29.3695 171.452 30.1737 171.956 31.0844 172.431C31.9952 172.906 32.9439 173.248 33.9305 173.457C34.3399 172.792 34.5724 172.076 34.6282 171.309C34.6535 170.551 34.5548 169.695 34.332 168.742C34.1092 167.788 33.8455 166.683 33.541 165.424L32.2387 160.381L29.5293 164.342C29.1534 164.28 28.7627 164.131 28.3571 163.897C27.9321 163.651 27.5503 163.353 27.2116 163.003C26.8617 162.672 26.6418 162.338 26.5519 162.003L31.3084 156.635ZM42.7895 160.373C42.2086 159.728 41.4947 159.135 40.6478 158.594C39.7705 158.061 38.876 157.647 37.9645 157.352C37.0225 157.065 36.1752 156.949 35.4226 157.004L37.1617 163.768L37.6597 165.718C38.4955 165.608 39.2451 165.268 39.9086 164.699C40.5609 164.148 41.1252 163.482 41.6014 162.701C42.0777 161.92 42.4737 161.144 42.7895 160.373Z" fill="black"/>
<path d="M82.1229 13.193L153.137 54.2405V136.336L82.1229 177.383L11.1088 136.336V54.2405L82.1229 13.193Z" fill="black"/>
<path d="M82.1231 19.925L147.314 57.6064V132.969L82.1231 170.651L16.9324 132.969V57.6064L82.1231 19.925Z" fill="black"/>
<path d="M140.246 69.5637C94.9172 81.2634 69.5069 82.4095 24.1797 69.5637C24.4416 82.9112 27.1072 89.8557 36.9945 101.088C51.3966 106.533 80.9367 111.679 80.9367 111.679C80.9367 111.679 108.217 107.309 126.698 101.088C134.545 92.9473 137.379 85.0072 140.246 69.5637Z" fill="white"/>
<path d="M76.2946 91.3303L38.4591 78.7038L29.0001 75.5471C30.0511 80.8082 35.6177 90.069 45.7072 96.1296C55.7967 102.19 69.9886 96.3808 76.2946 91.3303Z" fill="black"/>
<path d="M87.9505 91.3303L125.786 78.7038L135.245 75.5471C134.194 80.8082 128.627 90.069 118.538 96.1296C108.448 102.19 94.2565 96.3808 87.9505 91.3303Z" fill="black"/>
</svg>
